# xmcd
#
# Track frame offsets:
#	150
#	20809
#	41534
#	61079
#	81891
#	106513
#	128833
#	153420
#	166579
#	188306
#	210296
#	230923
#	250415
#
# Disc length: 3529 seconds
#
# Revision: 0
# Processed by: cddbd v1.5.2PL0 Copyright (c) Steve Scherf et al.
# Submitted via: EasyCDDAExtractor 16.0.9.1
#
DISCID=980dc70d
DTITLE=Various Artist - ASIACD312 - Mùa Xuân Đó Có Em
DYEAR=2011
DGENRE=Pop
TTITLE0=Đan Nguyên - Mùa Xuân Đó Có Em
TTITLE1=Mỹ Huyền - Đón Xuân Này Nhớ Xuân Xưa
TTITLE2=Hà Thanh Xuân - Gái Xuân
TTITLE3=Tường Khuê - Mùa Xuân Đầu Tiên
TTITLE4=Tâm Đoan - Ai Lên Xứ Hoa Đào
TTITLE5=Đặng Thế Luân - Thư Xuân Hải Ngoại
TTITLE6=Băng Tâm - Ngày Đầu Một Năm
TTITLE7=Ngọc Minh - Nhớ Một Chiều Xuân
TTITLE8=Đan Nguyên and Y Phụng - Thiệp Hồng Anh Viết Tên Em
TTITLE9=Ngọc Huyền - Cánh Thiệp Đầu Xuân
TTITLE10=Tường Nguyên - Câu Chuyện Đầu Năm
TTITLE11=Hợp Ca - Xuân Ca
TTITLE12=Phương Hồng Quế - Đan Áo Mùa Xuân
EXTD=
EXTT0=
EXTT1=
EXTT2=
EXTT3=
EXTT4=
EXTT5=
EXTT6=
EXTT7=
EXTT8=
EXTT9=
EXTT10=
EXTT11=
EXTT12=
PLAYORDER=
